SplineFontDB: 3.2
FontName: Untitled1
FullName: Untitled1
FamilyName: Untitled1
Weight: Regular
Copyright: Copyright (c) 2023, anova02
UComments: "2023-6-26: Created with FontForge (http://fontforge.org)"
Version: 001.000
ItalicAngle: 0
UnderlinePosition: -100
UnderlineWidth: 50
Ascent: 800
Descent: 200
InvalidEm: 0
LayerCount: 2
Layer: 0 0 "Back" 1
Layer: 1 0 "Fore" 0
XUID: [1021 343 -966832382 15705893]
OS2Version: 0
OS2_WeightWidthSlopeOnly: 0
OS2_UseTypoMetrics: 1
CreationTime: 1687815081
ModificationTime: 1687909963
OS2TypoAscent: 0
OS2TypoAOffset: 1
OS2TypoDescent: 0
OS2TypoDOffset: 1
OS2TypoLinegap: 0
OS2WinAscent: 0
OS2WinAOffset: 1
OS2WinDescent: 0
OS2WinDOffset: 1
HheadAscent: 0
HheadAOffset: 1
HheadDescent: 0
HheadDOffset: 1
OS2Vendor: 'PfEd'
DEI: 91125
Encoding: ISO8859-1
UnicodeInterp: none
NameList: AGL For New Fonts
DisplaySize: -48
AntiAlias: 1
FitToEm: 0
WinInfo: 0 50 20
Grid
-1000 1005 m 0
 2000 1005 l 1024
EndSplineSet
BeginChars: 256 63

StartChar: a
Encoding: 97 97 0
Width: 267
Flags: HW
LayerCount: 2
Fore
SplineSet
27.9951171875 125.981445312 m 0
 27.9951171875 180.107421875 71.85546875 223.96484375 125.978515625 223.96484375 c 0
 180.104492188 223.96484375 223.96484375 180.107421875 223.96484375 125.981445312 c 0
 223.96484375 71.85546875 180.104492188 27.9951171875 125.978515625 27.9951171875 c 0
 71.85546875 27.9951171875 27.9951171875 71.85546875 27.9951171875 125.981445312 c 0
0 125.981445312 m 0
 0 56.4111328125 56.4111328125 0 125.978515625 0 c 0
 195.548828125 0 251.959960938 56.4111328125 251.959960938 125.981445312 c 4
 251.959960938 195.548828125 195.548828125 251.959960938 125.978515625 251.959960938 c 0
 56.4111328125 251.959960938 0 195.548828125 0 125.981445312 c 0
223.96484375 13.9990234375 m 2
 223.96484375 -4.326171875 251.959960938 -4.326171875 251.959960938 13.9990234375 c 2
 251.959960938 237.963867188 l 2
 251.959960938 256.286132812 223.96484375 256.286132812 223.96484375 237.963867188 c 2
 223.96484375 13.9990234375 l 2
EndSplineSet
EndChar

StartChar: b
Encoding: 98 98 1
Width: 267
Flags: HW
LayerCount: 2
Fore
SplineSet
125.978515625 27.9951171875 m 0
 71.85546875 27.9951171875 27.9951171875 71.85546875 27.9951171875 125.98046875 c 0
 27.9951171875 180.107421875 71.85546875 223.96484375 125.978515625 223.96484375 c 0
 180.104492188 223.96484375 223.96484375 180.107421875 223.96484375 125.98046875 c 0
 223.96484375 71.85546875 180.104492188 27.9951171875 125.978515625 27.9951171875 c 0
125.978515625 0 m 0
 195.548828125 0 251.959960938 56.41015625 251.959960938 125.98046875 c 0
 251.959960938 195.548828125 195.548828125 251.959960938 125.978515625 251.959960938 c 0
 56.4111328125 251.959960938 0 195.548828125 0 125.98046875 c 0
 0 56.41015625 56.4111328125 0 125.978515625 0 c 0
0 13.998046875 m 2
 0 -4.326171875 27.9951171875 -4.326171875 27.9951171875 13.998046875 c 2
 27.9951171875 349.9453125 l 2
 27.9951171875 368.268554688 0 368.268554688 0 349.9453125 c 2
 0 13.998046875 l 2
EndSplineSet
EndChar

StartChar: c
Encoding: 99 99 2
Width: 267
Flags: HW
LayerCount: 2
Fore
SplineSet
125.981445312 0 m 0
 144.303710938 0 144.303710938 27.9951171875 125.981445312 27.9951171875 c 0
 71.85546875 27.9951171875 27.9951171875 71.85546875 27.9951171875 125.981445312 c 0
 27.9951171875 180.107421875 71.85546875 223.96484375 125.981445312 223.96484375 c 0
 180.104492188 223.96484375 223.96484375 180.107421875 223.96484375 125.981445312 c 0
 223.96484375 107.65625 251.959960938 107.65625 251.959960938 125.981445312 c 0
 251.959960938 195.548828125 195.548828125 251.959960938 125.981445312 251.959960938 c 0
 56.4111328125 251.959960938 0 195.548828125 0 125.981445312 c 0
 0 56.4111328125 56.4111328125 0 125.981445312 0 c 0
EndSplineSet
EndChar

StartChar: r
Encoding: 114 114 3
Width: 267
Flags: HW
LayerCount: 2
Fore
SplineSet
0 14 m 2
 0 -4.3251953125 27.9951171875 -4.3251953125 27.9951171875 14 c 2
 27.9951171875 237.962890625 l 2
 27.9951171875 256.288085938 0 256.288085938 0 237.962890625 c 2
 0 14 l 2
0 125.982421875 m 0
 0 107.657226562 27.9951171875 107.657226562 27.9951171875 125.982421875 c 0
 27.9951171875 180.106445312 71.85546875 223.965820312 125.981445312 223.965820312 c 0
 180.104492188 223.965820312 223.96484375 180.106445312 223.96484375 125.982421875 c 0
 223.96484375 107.657226562 251.959960938 107.657226562 251.959960938 125.982421875 c 0
 251.959960938 195.55078125 195.548828125 251.961914062 125.981445312 251.961914062 c 0
 56.4111328125 251.961914062 0 195.55078125 0 125.982421875 c 0
EndSplineSet
EndChar

StartChar: k
Encoding: 107 107 4
Width: 268
Flags: HW
LayerCount: 2
Fore
SplineSet
0 14 m 2
 0 -4.3251953125 27.9951171875 -4.3251953125 27.9951171875 14 c 2
 27.9951171875 349.947265625 l 2
 27.9951171875 368.270507812 0 368.270507812 0 349.947265625 c 2
 0 14 l 2
231.715820312 1.470703125 m 2
 248.063476562 -6.703125 260.637695312 18.3134765625 244.208984375 26.5263671875 c 2
 20.244140625 138.508789062 l 2
 3.896484375 146.685546875 -8.6767578125 121.668945312 7.7509765625 113.453125 c 2
 231.715820312 1.470703125 l 2
7.7509765625 138.508789062 m 2
 -8.6552734375 130.305664062 3.8740234375 105.26953125 20.244140625 113.453125 c 2
 244.208984375 225.435546875 l 2
 260.615234375 233.638671875 248.0859375 258.677734375 231.715820312 250.491210938 c 2
 7.7509765625 138.508789062 l 2
EndSplineSet
EndChar

StartChar: e
Encoding: 101 101 5
Width: 267
Flags: HW
LayerCount: 2
Fore
SplineSet
126.021484375 0 m 0
 144.34375 0 144.34375 27.9951171875 126.021484375 27.9951171875 c 0
 76.6484375 27.9951171875 35.818359375 64.4921875 29.029296875 111.982421875 c 1
 252 111.982421875 l 1
 252 125.981445312 l 2
 252 195.548828125 195.588867188 251.959960938 126.021484375 251.959960938 c 0
 56.451171875 251.959960938 0.0400390625 195.548828125 0.0400390625 125.981445312 c 0
 0.0400390625 56.4111328125 56.451171875 0 126.021484375 0 c 0
126.021484375 223.96484375 m 0
 175.393554688 223.96484375 216.223632812 187.470703125 223.013671875 139.977539062 c 1
 29.029296875 139.977539062 l 1
 35.818359375 187.470703125 76.6484375 223.96484375 126.021484375 223.96484375 c 0
EndSplineSet
EndChar

StartChar: t
Encoding: 116 116 6
Width: 267
Flags: HW
LayerCount: 2
Fore
SplineSet
111.983398438 14.0390625 m 2
 111.983398438 -4.2861328125 139.978515625 -4.2861328125 139.978515625 14.0390625 c 2
 139.978515625 349.983398438 l 2
 139.978515625 368.30859375 111.983398438 368.30859375 111.983398438 349.983398438 c 2
 111.983398438 14.0390625 l 2
14 252 m 2
 -4.3251953125 252 -4.3251953125 224.004882812 14 224.004882812 c 2
 237.96484375 224.004882812 l 2
 256.287109375 224.004882812 256.287109375 252 237.96484375 252 c 2
 14 252 l 2
EndSplineSet
EndChar

StartChar: l
Encoding: 108 108 7
Width: 43
Flags: HW
LayerCount: 2
Fore
SplineSet
0 14 m 2
 0 -4.3251953125 27.9951171875 -4.3251953125 27.9951171875 14 c 2
 27.9951171875 349.947265625 l 2
 27.9951171875 368.26953125 0 368.26953125 0 349.947265625 c 2
 0 14 l 2
EndSplineSet
EndChar

StartChar: f
Encoding: 102 102 8
Width: 267
Flags: HW
LayerCount: 2
Fore
SplineSet
0 15 m 2
 0 -3.3251953125 27.9951171875 -3.3251953125 27.9951171875 15 c 2
 27.9951171875 238.96484375 l 2
 27.9951171875 293.088867188 71.85546875 336.948242188 125.981445312 336.948242188 c 0
 180.104492188 336.948242188 223.96484375 293.088867188 223.96484375 238.96484375 c 0
 223.96484375 220.639648438 251.959960938 220.639648438 251.959960938 238.96484375 c 0
 251.959960938 308.533203125 195.548828125 364.944335938 125.981445312 364.944335938 c 0
 56.4111328125 364.944335938 0 308.533203125 0 238.96484375 c 2
 0 15 l 2
125.981445312 112.983398438 m 2
 144.303710938 112.983398438 144.303710938 140.979492188 125.981445312 140.979492188 c 2
 13.9990234375 140.979492188 l 2
 -4.326171875 140.979492188 -4.326171875 112.983398438 13.9990234375 112.983398438 c 2
 125.981445312 112.983398438 l 2
EndSplineSet
EndChar

StartChar: i
Encoding: 105 105 9
Width: 43
Flags: HW
LayerCount: 2
Fore
SplineSet
13.9970703125 363.944335938 m 4
 -4.328125 363.944335938 -4.328125 335.948242188 13.9970703125 335.948242188 c 4
 32.322265625 335.948242188 32.322265625 363.944335938 13.9970703125 363.944335938 c 4
27.994140625 237.96484375 m 6
 27.994140625 256.288085938 0 256.288085938 0 237.96484375 c 6
 0 14 l 6
 0 -4.3251953125 27.994140625 -4.3251953125 27.994140625 14 c 6
 27.994140625 237.96484375 l 6
EndSplineSet
EndChar

StartChar: d
Encoding: 100 100 10
Width: 267
Flags: HW
LayerCount: 2
Fore
SplineSet
27.9951171875 125.98046875 m 0
 27.9951171875 180.107421875 71.85546875 223.96484375 125.981445312 223.96484375 c 0
 180.104492188 223.96484375 223.96484375 180.107421875 223.96484375 125.98046875 c 0
 223.96484375 71.85546875 180.104492188 27.9951171875 125.981445312 27.9951171875 c 0
 71.85546875 27.9951171875 27.9951171875 71.85546875 27.9951171875 125.98046875 c 0
0 125.98046875 m 0
 0 56.41015625 56.4111328125 0 125.981445312 0 c 0
 195.548828125 0 251.959960938 56.41015625 251.959960938 125.98046875 c 0
 251.959960938 195.548828125 195.548828125 251.959960938 125.981445312 251.959960938 c 0
 56.4111328125 251.959960938 0 195.548828125 0 125.98046875 c 0
223.96484375 13.998046875 m 2
 223.96484375 -4.326171875 251.959960938 -4.326171875 251.959960938 13.998046875 c 2
 251.959960938 349.9453125 l 2
 251.959960938 368.268554688 223.96484375 368.268554688 223.96484375 349.9453125 c 2
 223.96484375 13.998046875 l 2
EndSplineSet
EndChar

StartChar: g
Encoding: 103 103 11
Width: 267
Flags: HW
LayerCount: 2
Fore
SplineSet
223.96484375 125.981445312 m 0
 223.96484375 71.85546875 180.104492188 27.9951171875 125.978515625 27.9951171875 c 0
 71.85546875 27.9951171875 27.9951171875 71.85546875 27.9951171875 125.981445312 c 0
 27.9951171875 180.107421875 71.85546875 223.96484375 125.978515625 223.96484375 c 0
 180.104492188 223.96484375 223.96484375 180.107421875 223.96484375 125.981445312 c 0
251.959960938 125.981445312 m 0
 251.959960938 195.549804688 195.548828125 251.959960938 125.978515625 251.959960938 c 0
 56.4111328125 251.959960938 0 195.549804688 0 125.981445312 c 0
 0 56.4111328125 56.4111328125 0 125.978515625 0 c 0
 195.548828125 0 251.959960938 56.4111328125 251.959960938 125.981445312 c 0
251.959960938 237.963867188 m 2
 251.959960938 256.286132812 223.96484375 256.286132812 223.96484375 237.963867188 c 2
 223.96484375 13.9990234375 l 2
 223.96484375 -40.126953125 180.104492188 -83.984375 125.978515625 -83.984375 c 0
 71.85546875 -83.984375 27.9951171875 -40.126953125 27.9951171875 13.9990234375 c 0
 27.9951171875 32.32421875 0 32.32421875 0 13.9990234375 c 0
 0 -55.5712890625 56.4111328125 -111.979492188 125.978515625 -111.979492188 c 0
 195.548828125 -111.979492188 251.959960938 -55.5712890625 251.959960938 13.9990234375 c 2
 251.959960938 237.963867188 l 2
EndSplineSet
EndChar

StartChar: h
Encoding: 104 104 12
Width: 267
Flags: HW
LayerCount: 2
Fore
SplineSet
0 125.982421875 m 0
 0 107.657226562 27.9951171875 107.657226562 27.9951171875 125.982421875 c 0
 27.9951171875 180.108398438 71.8525390625 223.965820312 125.978515625 223.965820312 c 0
 180.104492188 223.965820312 223.961914062 180.108398438 223.961914062 125.982421875 c 2
 223.961914062 14 l 2
 223.961914062 -4.3251953125 251.95703125 -4.3251953125 251.95703125 14 c 2
 251.95703125 125.982421875 l 2
 251.95703125 195.55078125 195.548828125 251.9609375 125.978515625 251.9609375 c 0
 56.41015625 251.9609375 0 195.55078125 0 125.982421875 c 0
0 14 m 2
 0 -4.3251953125 27.9951171875 -4.3251953125 27.9951171875 14 c 2
 27.9951171875 349.947265625 l 2
 27.9951171875 368.26953125 0 368.26953125 0 349.947265625 c 2
 0 14 l 2
EndSplineSet
EndChar

StartChar: j
Encoding: 106 106 13
Width: 263
Flags: HW
LayerCount: 2
Fore
SplineSet
238.553710938 363.944335938 m 0
 220.228515625 363.944335938 220.228515625 335.948242188 238.553710938 335.948242188 c 0
 256.876953125 335.948242188 256.876953125 363.944335938 238.553710938 363.944335938 c 0
252.55078125 237.96484375 m 2
 252.55078125 256.288085938 224.5546875 256.288085938 224.5546875 237.96484375 c 2
 224.5546875 14 l 2
 224.5546875 -40.1259765625 180.697265625 -83.9833984375 126.571289062 -83.9833984375 c 0
 72.4453125 -83.9833984375 28.5859375 -40.1259765625 28.5859375 14 c 0
 28.5859375 32.3251953125 0.591796875 32.3251953125 0.591796875 14 c 0
 0.591796875 -55.5703125 57.0009765625 -111.979492188 126.571289062 -111.979492188 c 0
 196.138671875 -111.979492188 252.55078125 -55.5703125 252.55078125 14 c 2
 252.55078125 237.96484375 l 2
EndSplineSet
EndChar

StartChar: n
Encoding: 110 110 15
Width: 267
Flags: HW
LayerCount: 2
Fore
SplineSet
0 14 m 2
 0 -4.3251953125 27.9951171875 -4.3251953125 27.9951171875 14 c 2
 27.9951171875 237.962890625 l 2
 27.9951171875 256.288085938 0 256.288085938 0 237.962890625 c 2
 0 14 l 2
0 125.982421875 m 0
 0 107.657226562 27.9951171875 107.657226562 27.9951171875 125.982421875 c 0
 27.9951171875 180.106445312 71.85546875 223.965820312 125.981445312 223.965820312 c 0
 180.107421875 223.965820312 223.96484375 180.106445312 223.96484375 125.982421875 c 2
 223.96484375 14 l 2
 223.96484375 -4.3251953125 251.959960938 -4.3251953125 251.959960938 14 c 2
 251.959960938 125.982421875 l 2
 251.959960938 195.55078125 195.548828125 251.961914062 125.981445312 251.961914062 c 0
 56.4111328125 251.961914062 0 195.55078125 0 125.982421875 c 0
EndSplineSet
EndChar

StartChar: w
Encoding: 119 119 16
Width: 494
Flags: HW
LayerCount: 2
Fore
SplineSet
27.0556640625 244.493164062 m 2
 18.8525390625 260.899414062 -6.18359375 248.370117188 2 232 c 2
 113.982421875 8.03515625 l 2
 122.185546875 -8.37109375 147.224609375 4.158203125 139.038085938 20.5283203125 c 2
 27.0556640625 244.493164062 l 2
251.020507812 232 m 2
 259.194335938 248.34765625 234.1796875 260.920898438 225.96484375 244.493164062 c 2
 113.982421875 20.5283203125 l 2
 105.80859375 4.1806640625 130.825195312 -8.392578125 139.038085938 8.03515625 c 2
 251.020507812 232 l 2
337.947265625 8.03515625 m 2
 344.506835938 -5.08203125 364.47265625 -0.353515625 364.47265625 14.283203125 c 0
 364.47265625 16.5263671875 363.943359375 18.6484375 363.002929688 20.5283203125 c 2
 251.020507812 244.493164062 l 2
 242.817382812 260.899414062 217.78125 248.370117188 225.96484375 232 c 2
 337.947265625 8.03515625 l 2
474.985351562 232 m 2
 479.604492188 241.23828125 472.861328125 252.244140625 462.456054688 252.244140625 c 0
 456.975585938 252.244140625 452.2265625 249.087890625 449.9296875 244.493164062 c 2
 337.947265625 20.5283203125 l 2
 333.328125 11.2900390625 340.071289062 0.2841796875 350.4765625 0.2841796875 c 0
 355.95703125 0.2841796875 360.706054688 3.443359375 363.002929688 8.03515625 c 2
 474.985351562 232 l 2
EndSplineSet
EndChar

StartChar: o
Encoding: 111 111 17
Width: 267
Flags: HW
LayerCount: 2
Fore
SplineSet
125.981445312 223.96484375 m 0
 180.104492188 223.96484375 223.96484375 180.104492188 223.96484375 125.981445312 c 0
 223.96484375 71.85546875 180.104492188 27.9951171875 125.981445312 27.9951171875 c 0
 71.85546875 27.9951171875 27.9951171875 71.85546875 27.9951171875 125.981445312 c 0
 27.9951171875 180.104492188 71.85546875 223.96484375 125.981445312 223.96484375 c 0
125.981445312 251.959960938 m 0
 56.4111328125 251.959960938 0 195.548828125 0 125.981445312 c 0
 0 56.4111328125 56.4111328125 0 125.981445312 0 c 0
 195.548828125 0 251.959960938 56.4111328125 251.959960938 125.981445312 c 0
 251.959960938 195.548828125 195.548828125 251.959960938 125.981445312 251.959960938 c 0
EndSplineSet
EndChar

StartChar: u
Encoding: 117 117 18
Width: 267
Flags: HW
LayerCount: 2
Fore
SplineSet
223.96484375 13.9990234375 m 2
 223.96484375 -4.326171875 251.959960938 -4.326171875 251.959960938 13.9990234375 c 2
 251.959960938 237.961914062 l 2
 251.959960938 256.287109375 223.96484375 256.287109375 223.96484375 237.961914062 c 2
 223.96484375 13.9990234375 l 2
251.959960938 125.981445312 m 0
 251.959960938 144.3046875 223.96484375 144.3046875 223.96484375 125.981445312 c 0
 223.96484375 71.85546875 180.104492188 27.99609375 125.981445312 27.99609375 c 0
 71.85546875 27.99609375 27.9951171875 71.85546875 27.9951171875 125.981445312 c 2
 27.9951171875 237.961914062 l 2
 27.9951171875 256.287109375 0 256.287109375 0 237.961914062 c 2
 0 125.981445312 l 2
 0 56.4111328125 56.4111328125 0 125.981445312 0 c 0
 195.548828125 0 251.959960938 56.4111328125 251.959960938 125.981445312 c 0
EndSplineSet
EndChar

StartChar: s
Encoding: 115 115 19
Width: 267
Flags: HW
LayerCount: 2
Fore
SplineSet
125.978515625 0 m 0
 144.303710938 0 144.303710938 27.9951171875 125.978515625 27.9951171875 c 0
 71.85546875 27.9951171875 27.9951171875 71.85546875 27.9951171875 125.981445312 c 0
 27.9951171875 180.104492188 71.85546875 223.96484375 125.978515625 223.96484375 c 0
 180.104492188 223.96484375 223.96484375 180.104492188 223.96484375 125.981445312 c 0
 223.96484375 107.65625 251.959960938 107.65625 251.959960938 125.981445312 c 0
 251.959960938 195.548828125 195.548828125 251.959960938 125.978515625 251.959960938 c 0
 56.4111328125 251.959960938 0 195.548828125 0 125.981445312 c 0
 0 56.4111328125 56.4111328125 0 125.978515625 0 c 0
251.959960938 13.9990234375 m 0
 251.959960938 32.3212890625 223.96484375 32.3212890625 223.96484375 13.9990234375 c 0
 223.96484375 -40.126953125 180.104492188 -83.9873046875 125.978515625 -83.9873046875 c 0
 71.85546875 -83.9873046875 27.9951171875 -40.126953125 27.9951171875 13.9990234375 c 0
 27.9951171875 32.3212890625 0 32.3212890625 0 13.9990234375 c 0
 0 -55.5712890625 56.4111328125 -111.982421875 125.978515625 -111.982421875 c 0
 195.548828125 -111.982421875 251.959960938 -55.5712890625 251.959960938 13.9990234375 c 0
EndSplineSet
EndChar

StartChar: v
Encoding: 118 118 20
Width: 267
Flags: HW
LayerCount: 2
Fore
SplineSet
113.982421875 20.52734375 m 2
 109.36328125 11.2890625 116.106445312 0.283203125 126.508789062 0.283203125 c 0
 131.9921875 0.283203125 136.741210938 3.4423828125 139.038085938 8.03515625 c 2
 251.020507812 232 l 2
 259.194335938 248.34765625 234.177734375 260.919921875 225.96484375 244.4921875 c 2
 113.982421875 20.52734375 l 2
113.982421875 8.03515625 m 2
 122.185546875 -8.37109375 147.221679688 4.158203125 139.038085938 20.52734375 c 2
 27.0556640625 244.4921875 l 2
 18.8525390625 260.8984375 -6.1865234375 248.369140625 2 232 c 2
 113.982421875 8.03515625 l 2
EndSplineSet
EndChar

StartChar: m
Encoding: 109 109 21
Width: 491
Flags: HW
LayerCount: 2
Fore
SplineSet
0 14 m 2
 0 -4.3251953125 27.99609375 -4.3251953125 27.99609375 14 c 2
 27.99609375 237.962890625 l 2
 27.99609375 256.288085938 0 256.288085938 0 237.962890625 c 2
 0 14 l 2
0 125.982421875 m 0
 0 107.657226562 27.99609375 107.657226562 27.99609375 125.982421875 c 0
 27.99609375 180.106445312 71.85546875 223.965820312 125.979492188 223.965820312 c 0
 180.10546875 223.965820312 223.96484375 180.106445312 223.96484375 125.982421875 c 2
 223.96484375 14 l 2
 223.96484375 -4.3251953125 251.9609375 -4.3251953125 251.9609375 14 c 2
 251.9609375 125.982421875 l 2
 251.9609375 195.55078125 195.549804688 251.961914062 125.979492188 251.961914062 c 0
 56.412109375 251.961914062 0 195.55078125 0 125.982421875 c 0
223.96484375 125.982421875 m 0
 223.96484375 107.657226562 251.9609375 107.657226562 251.9609375 125.982421875 c 0
 251.9609375 180.106445312 295.818359375 223.965820312 349.944335938 223.965820312 c 0
 404.0703125 223.965820312 447.927734375 180.106445312 447.927734375 125.982421875 c 2
 447.927734375 14 l 2
 447.927734375 -4.3251953125 475.923828125 -4.3251953125 475.923828125 14 c 2
 475.923828125 125.982421875 l 2
 475.923828125 195.55078125 419.514648438 251.961914062 349.944335938 251.961914062 c 0
 280.376953125 251.961914062 223.96484375 195.55078125 223.96484375 125.982421875 c 0
EndSplineSet
EndChar

StartChar: p
Encoding: 112 112 22
Width: 267
Flags: HW
LayerCount: 2
Fore
SplineSet
223.96484375 125.981445312 m 0
 223.96484375 71.85546875 180.104492188 27.99609375 125.981445312 27.99609375 c 0
 71.85546875 27.99609375 27.9951171875 71.85546875 27.9951171875 125.981445312 c 0
 27.9951171875 180.10546875 71.85546875 223.96484375 125.981445312 223.96484375 c 0
 180.104492188 223.96484375 223.96484375 180.10546875 223.96484375 125.981445312 c 0
251.959960938 125.981445312 m 0
 251.959960938 195.549804688 195.548828125 251.9609375 125.981445312 251.9609375 c 0
 56.4111328125 251.9609375 0 195.549804688 0 125.981445312 c 0
 0 56.4111328125 56.4111328125 0 125.981445312 0 c 0
 195.548828125 0 251.959960938 56.4111328125 251.959960938 125.981445312 c 0
27.9951171875 237.961914062 m 2
 27.9951171875 256.287109375 0 256.287109375 0 237.961914062 c 2
 0 -97.9833984375 l 2
 0 -116.30859375 27.9951171875 -116.30859375 27.9951171875 -97.9833984375 c 2
 27.9951171875 237.961914062 l 2
EndSplineSet
EndChar

StartChar: q
Encoding: 113 113 23
Width: 267
Flags: HW
LayerCount: 2
Fore
SplineSet
125.981445312 223.96484375 m 0
 180.107421875 223.96484375 223.96484375 180.10546875 223.96484375 125.981445312 c 0
 223.96484375 71.85546875 180.107421875 27.99609375 125.981445312 27.99609375 c 0
 71.85546875 27.99609375 27.9951171875 71.85546875 27.9951171875 125.981445312 c 0
 27.9951171875 180.10546875 71.85546875 223.96484375 125.981445312 223.96484375 c 0
125.981445312 251.9609375 m 0
 56.4111328125 251.9609375 0 195.549804688 0 125.981445312 c 0
 0 56.4111328125 56.4111328125 0 125.981445312 0 c 0
 195.548828125 0 251.959960938 56.4111328125 251.959960938 125.981445312 c 0
 251.959960938 195.549804688 195.548828125 251.9609375 125.981445312 251.9609375 c 0
223.96484375 -97.9833984375 m 2
 223.96484375 -116.30859375 251.959960938 -116.30859375 251.959960938 -97.9833984375 c 2
 251.959960938 237.961914062 l 2
 251.959960938 256.287109375 223.96484375 256.287109375 223.96484375 237.961914062 c 2
 223.96484375 -97.9833984375 l 2
EndSplineSet
EndChar

StartChar: x
Encoding: 120 120 24
Width: 267
Flags: HW
LayerCount: 2
Fore
SplineSet
24 248.756835938 m 2
 11.0458984375 261.708984375 -8.7587890625 241.930664062 4.2080078125 228.96484375 c 2
 228.169921875 5 l 2
 241.124023438 -7.9521484375 260.928710938 11.826171875 247.961914062 24.7919921875 c 2
 24 248.756835938 l 2
4.2080078125 24.7919921875 m 2
 -8.7470703125 11.8408203125 11.03125 -7.966796875 24 5 c 2
 247.961914062 228.96484375 l 2
 260.916992188 241.918945312 241.138671875 261.723632812 228.169921875 248.756835938 c 2
 4.2080078125 24.7919921875 l 2
EndSplineSet
EndChar

StartChar: y
Encoding: 121 121 25
Width: 267
Flags: HW
LayerCount: 2
Fore
SplineSet
251.959960938 125.981445312 m 0
 251.959960938 144.3046875 223.96484375 144.3046875 223.96484375 125.981445312 c 0
 223.96484375 71.85546875 180.104492188 27.99609375 125.978515625 27.99609375 c 0
 71.85546875 27.99609375 27.9951171875 71.85546875 27.9951171875 125.981445312 c 2
 27.9951171875 237.961914062 l 2
 27.9951171875 256.287109375 0 256.287109375 0 237.961914062 c 2
 0 125.981445312 l 2
 0 56.4111328125 56.4111328125 0 125.978515625 0 c 0
 195.548828125 0 251.959960938 56.4111328125 251.959960938 125.981445312 c 0
251.959960938 237.961914062 m 2
 251.959960938 256.287109375 223.96484375 256.287109375 223.96484375 237.961914062 c 2
 223.96484375 13.9990234375 l 2
 223.96484375 -40.126953125 180.104492188 -83.986328125 125.978515625 -83.986328125 c 0
 71.85546875 -83.986328125 27.9951171875 -40.126953125 27.9951171875 13.9990234375 c 0
 27.9951171875 32.322265625 0 32.322265625 0 13.9990234375 c 0
 0 -55.5712890625 56.4111328125 -111.982421875 125.978515625 -111.982421875 c 0
 195.548828125 -111.982421875 251.959960938 -55.5712890625 251.959960938 13.9990234375 c 2
 251.959960938 237.961914062 l 2
EndSplineSet
EndChar

StartChar: z
Encoding: 122 122 26
Width: 267
Flags: HW
LayerCount: 2
Fore
SplineSet
14 251.995117188 m 2
 -4.322265625 251.995117188 -4.322265625 224 14 224 c 2
 237.96484375 224 l 2
 256.290039062 224 256.290039062 251.995117188 237.96484375 251.995117188 c 2
 14 251.995117188 l 2
14 28.0302734375 m 2
 -4.322265625 28.0302734375 -4.322265625 0.03515625 14 0.03515625 c 2
 237.96484375 0.03515625 l 2
 256.290039062 0.03515625 256.290039062 28.0302734375 237.96484375 28.0302734375 c 2
 14 28.0302734375 l 2
247.862304688 228.1015625 m 2
 260.814453125 241.055664062 241.036132812 260.860351562 228.0703125 247.893554688 c 2
 4.10546875 23.9287109375 l 2
 -8.8466796875 10.9775390625 10.931640625 -8.830078125 23.8974609375 4.13671875 c 2
 247.862304688 228.1015625 l 2
EndSplineSet
EndChar

StartChar: D
Encoding: 68 68 27
Width: 267
Flags: HW
LayerCount: 2
Fore
SplineSet
223.961914062 125.981445312 m 2
 223.961914062 71.85546875 180.104492188 27.9951171875 125.978515625 27.9951171875 c 2
 27.9921875 27.9951171875 l 1
 27.9921875 335.947265625 l 1
 125.978515625 335.947265625 l 2
 180.104492188 335.947265625 223.961914062 292.086914062 223.961914062 237.963867188 c 2
 223.961914062 125.981445312 l 2
251.95703125 125.981445312 m 2
 251.95703125 237.963867188 l 2
 251.95703125 307.53125 195.546875 363.942382812 125.978515625 363.942382812 c 0
 0 363.942382812 0 363.942382812 0 363.942382812 c 1
 0 0 l 1
 125.978515625 0 l 2
 195.546875 0 251.95703125 56.4111328125 251.95703125 125.981445312 c 2
EndSplineSet
EndChar

StartChar: A
Encoding: 65 65 28
Width: 267
Flags: HW
LayerCount: 2
Fore
SplineSet
0 14.03515625 m 2
 0 -4.2900390625 27.9951171875 -4.2900390625 27.9951171875 14.03515625 c 2
 27.9951171875 238 l 2
 27.9951171875 292.124023438 71.85546875 335.983398438 125.978515625 335.983398438 c 0
 180.104492188 335.983398438 223.96484375 292.124023438 223.96484375 238 c 2
 223.96484375 14.03515625 l 2
 223.96484375 -4.2900390625 251.959960938 -4.2900390625 251.959960938 14.03515625 c 2
 251.959960938 238 l 2
 251.959960938 307.568359375 195.548828125 363.979492188 125.978515625 363.979492188 c 0
 56.4111328125 363.979492188 0 307.568359375 0 238 c 2
 0 14.03515625 l 2
237.9609375 112.018554688 m 2
 256.286132812 112.018554688 256.286132812 140.014648438 237.9609375 140.014648438 c 2
 13.99609375 140.014648438 l 2
 -4.326171875 140.014648438 -4.326171875 112.018554688 13.99609375 112.018554688 c 2
 237.9609375 112.018554688 l 2
EndSplineSet
EndChar

StartChar: U
Encoding: 85 85 29
Width: 267
Flags: HW
LayerCount: 2
Fore
SplineSet
251.959960938 349.9453125 m 2
 251.959960938 368.268554688 223.96484375 368.268554688 223.96484375 349.9453125 c 2
 223.96484375 125.98046875 l 2
 223.96484375 71.85546875 180.107421875 27.9951171875 125.981445312 27.9951171875 c 0
 71.85546875 27.9951171875 27.9951171875 71.85546875 27.9951171875 125.98046875 c 2
 27.9951171875 349.9453125 l 2
 27.9951171875 368.268554688 0 368.268554688 0 349.9453125 c 2
 0 125.98046875 l 2
 0 56.41015625 56.4111328125 0 125.981445312 0 c 0
 195.548828125 0 251.959960938 56.41015625 251.959960938 125.98046875 c 2
 251.959960938 349.9453125 l 2
EndSplineSet
EndChar

StartChar: J
Encoding: 74 74 30
Width: 267
Flags: HW
LayerCount: 2
Fore
SplineSet
251.959960938 349.944335938 m 2
 251.959960938 368.26953125 223.96484375 368.26953125 223.96484375 349.944335938 c 2
 223.96484375 125.979492188 l 2
 223.96484375 71.853515625 180.104492188 27.99609375 125.978515625 27.99609375 c 0
 71.85546875 27.99609375 27.9951171875 71.853515625 27.9951171875 125.979492188 c 0
 27.9951171875 144.3046875 0 144.3046875 0 125.979492188 c 0
 0 56.4111328125 56.4111328125 0 125.978515625 0 c 0
 195.548828125 0 251.959960938 56.4111328125 251.959960938 125.979492188 c 2
 251.959960938 349.944335938 l 2
EndSplineSet
EndChar

StartChar: B
Encoding: 66 66 31
Width: 267
Flags: HW
LayerCount: 2
Fore
SplineSet
251.959960938 125.981445312 m 0
 251.959960938 144.303710938 223.96484375 144.303710938 223.96484375 125.981445312 c 0
 223.96484375 71.85546875 180.104492188 27.9951171875 125.978515625 27.9951171875 c 2
 27.9951171875 27.9951171875 l 1
 27.9951171875 335.947265625 l 1
 125.978515625 335.947265625 l 2
 180.104492188 335.947265625 223.96484375 292.086914062 223.96484375 237.963867188 c 0
 223.96484375 183.837890625 180.104492188 139.977539062 125.978515625 139.977539062 c 0
 107.65625 139.977539062 107.65625 111.982421875 125.978515625 111.982421875 c 0
 195.548828125 111.982421875 251.959960938 168.393554688 251.959960938 237.963867188 c 0
 251.959960938 307.53125 195.548828125 363.942382812 125.978515625 363.942382812 c 0
 0 363.942382812 0 363.942382812 0 363.942382812 c 1
 0 0 l 1
 125.978515625 0 l 2
 195.548828125 0 251.959960938 56.4111328125 251.959960938 125.981445312 c 0
EndSplineSet
EndChar

StartChar: P
Encoding: 80 80 32
Width: 267
Flags: HW
LayerCount: 2
Fore
SplineSet
0 14 m 2
 0 -4.322265625 27.9951171875 -4.322265625 27.9951171875 14 c 2
 27.9951171875 111.986328125 l 1
 125.978515625 111.986328125 l 2
 195.546875 111.986328125 251.95703125 168.397460938 251.95703125 237.96484375 c 0
 251.95703125 307.533203125 195.546875 363.944335938 125.978515625 363.944335938 c 0
 0 363.944335938 0 363.944335938 0 363.944335938 c 1
 0 14 l 2
27.9951171875 335.948242188 m 1
 125.978515625 335.948242188 l 2
 180.104492188 335.948242188 223.961914062 292.090820312 223.961914062 237.96484375 c 0
 223.961914062 183.838867188 180.104492188 139.981445312 125.978515625 139.981445312 c 2
 27.9951171875 139.981445312 l 1
 27.9951171875 335.948242188 l 1
EndSplineSet
EndChar

StartChar: C
Encoding: 67 67 33
Width: 267
Flags: HW
LayerCount: 2
Fore
SplineSet
251.959960938 126 m 0
 251.959960938 144.322265625 223.96484375 144.322265625 223.96484375 126 c 0
 223.96484375 71.8740234375 180.104492188 28.013671875 125.978515625 28.013671875 c 0
 71.85546875 28.013671875 27.9951171875 71.8740234375 27.9951171875 126 c 2
 27.9951171875 237.982421875 l 2
 27.9951171875 292.10546875 71.85546875 335.965820312 125.978515625 335.965820312 c 0
 180.104492188 335.965820312 223.96484375 292.10546875 223.96484375 237.982421875 c 0
 223.96484375 219.657226562 251.959960938 219.657226562 251.959960938 237.982421875 c 0
 251.959960938 307.549804688 195.548828125 363.9609375 125.978515625 363.9609375 c 0
 56.4111328125 363.9609375 0 307.549804688 0 237.982421875 c 2
 0 126 l 2
 0 56.4296875 56.4111328125 0.0185546875 125.978515625 0.0185546875 c 0
 195.548828125 0.0185546875 251.959960938 56.4296875 251.959960938 126 c 0
EndSplineSet
EndChar

StartChar: F
Encoding: 70 70 34
Width: 267
Flags: HW
LayerCount: 2
Fore
SplineSet
0 14 m 2
 0 -4.3251953125 27.99609375 -4.3251953125 27.99609375 14 c 2
 27.99609375 335.948242188 l 1
 237.961914062 335.948242188 l 2
 256.287109375 335.948242188 256.287109375 363.944335938 237.961914062 363.944335938 c 0
 0 363.944335938 0 363.944335938 0 363.944335938 c 1
 0 14 l 2
125.979492188 111.983398438 m 2
 144.3046875 111.983398438 144.3046875 139.979492188 125.979492188 139.979492188 c 2
 13.9970703125 139.979492188 l 2
 -4.326171875 139.979492188 -4.326171875 111.983398438 13.9970703125 111.983398438 c 2
 125.979492188 111.983398438 l 2
EndSplineSet
EndChar

StartChar: I
Encoding: 73 73 35
Width: 267
Flags: HW
LayerCount: 2
Fore
SplineSet
14 27.9951171875 m 2
 -4.322265625 27.9951171875 -4.322265625 0 14 0 c 2
 237.96484375 0 l 2
 256.290039062 0 256.290039062 27.9951171875 237.96484375 27.9951171875 c 2
 14 27.9951171875 l 2
111.986328125 13.9990234375 m 2
 111.986328125 -4.326171875 139.981445312 -4.326171875 139.981445312 13.9990234375 c 2
 139.981445312 349.946289062 l 2
 139.981445312 368.268554688 111.986328125 368.268554688 111.986328125 349.946289062 c 2
 111.986328125 13.9990234375 l 2
237.96484375 335.947265625 m 2
 256.290039062 335.947265625 256.290039062 363.942382812 237.96484375 363.942382812 c 2
 14 363.942382812 l 2
 -4.322265625 363.942382812 -4.322265625 335.947265625 14 335.947265625 c 2
 237.96484375 335.947265625 l 2
EndSplineSet
EndChar

StartChar: K
Encoding: 75 75 36
Width: 267
Flags: HW
LayerCount: 2
Fore
SplineSet
0 14 m 2
 0 -4.3232421875 27.9951171875 -4.3232421875 27.9951171875 14 c 2
 27.9951171875 349.947265625 l 2
 27.9951171875 368.272460938 0 368.272460938 0 349.947265625 c 2
 0 14 l 2
22.3857421875 193.1796875 m 2
 7.7568359375 204.149414062 -9.0849609375 181.790039062 5.6103515625 170.770507812 c 2
 229.575195312 2.7958984375 l 2
 244.202148438 -8.1748046875 261.041992188 14.185546875 246.34765625 25.2060546875 c 2
 22.3857421875 193.1796875 l 2
246.34765625 338.741210938 m 2
 261.025390625 349.749023438 244.21875 372.134765625 229.575195312 361.151367188 c 2
 5.6103515625 193.1796875 l 2
 -9.0673828125 182.170898438 7.7392578125 159.786132812 22.3857421875 170.770507812 c 2
 246.34765625 338.741210938 l 2
EndSplineSet
EndChar

StartChar: T
Encoding: 84 84 37
Width: 267
Flags: HW
LayerCount: 2
Fore
SplineSet
237.96484375 333.00390625 m 2
 256.290039062 333.00390625 256.290039062 361 237.96484375 361 c 2
 14 361 l 2
 -4.3232421875 361 -4.3232421875 333.00390625 14 333.00390625 c 2
 237.96484375 333.00390625 l 2
139.981445312 347.002929688 m 2
 139.981445312 365.326171875 111.985351562 365.326171875 111.985351562 347.002929688 c 2
 111.985351562 11.0556640625 l 2
 111.985351562 -7.26953125 139.981445312 -7.26953125 139.981445312 11.0556640625 c 2
 139.981445312 347.002929688 l 2
EndSplineSet
EndChar

StartChar: H
Encoding: 72 72 38
Width: 267
Flags: HW
LayerCount: 2
Fore
SplineSet
0 14 m 2
 0 -4.3251953125 27.9951171875 -4.3251953125 27.9951171875 14 c 2
 27.9951171875 349.947265625 l 2
 27.9951171875 368.26953125 0 368.26953125 0 349.947265625 c 2
 0 14 l 2
251.95703125 349.947265625 m 2
 251.95703125 368.26953125 223.961914062 368.26953125 223.961914062 349.947265625 c 2
 223.961914062 14 l 2
 223.961914062 -4.3251953125 251.95703125 -4.3251953125 251.95703125 14 c 2
 251.95703125 349.947265625 l 2
13.99609375 195.970703125 m 2
 -4.3291015625 195.970703125 -4.3291015625 167.974609375 13.99609375 167.974609375 c 2
 237.9609375 167.974609375 l 2
 256.283203125 167.974609375 256.283203125 195.970703125 237.9609375 195.970703125 c 2
 13.99609375 195.970703125 l 2
EndSplineSet
EndChar

StartChar: E
Encoding: 69 69 39
Width: 267
Flags: HW
LayerCount: 2
Fore
SplineSet
237.961914062 0 m 2
 256.287109375 0 256.287109375 27.9951171875 237.961914062 27.9951171875 c 2
 27.99609375 27.9951171875 l 1
 27.99609375 335.947265625 l 1
 237.961914062 335.947265625 l 2
 256.287109375 335.947265625 256.287109375 363.942382812 237.961914062 363.942382812 c 0
 0 363.942382812 0 363.942382812 0 363.942382812 c 1
 0 0 l 1
 237.961914062 0 l 2
13.9970703125 195.96875 m 2
 -4.326171875 195.96875 -4.326171875 167.973632812 13.9970703125 167.973632812 c 2
 237.961914062 167.973632812 l 2
 256.287109375 167.973632812 256.287109375 195.96875 237.961914062 195.96875 c 2
 13.9970703125 195.96875 l 2
EndSplineSet
EndChar

StartChar: G
Encoding: 71 71 40
Width: 267
Flags: HW
LayerCount: 2
Fore
SplineSet
125.979492188 195.96875 m 2
 107.654296875 195.96875 107.654296875 167.973632812 125.979492188 167.973632812 c 2
 223.96484375 167.973632812 l 1
 223.96484375 125.981445312 l 2
 223.96484375 71.85546875 180.10546875 27.9951171875 125.979492188 27.9951171875 c 0
 71.853515625 27.9951171875 27.99609375 71.85546875 27.99609375 125.981445312 c 2
 27.99609375 237.963867188 l 2
 27.99609375 292.086914062 71.853515625 335.947265625 125.979492188 335.947265625 c 0
 180.10546875 335.947265625 223.96484375 292.086914062 223.96484375 237.963867188 c 0
 223.96484375 219.638671875 251.958984375 219.638671875 251.958984375 237.963867188 c 0
 251.958984375 307.53125 195.549804688 363.942382812 125.979492188 363.942382812 c 0
 56.412109375 363.942382812 0 307.53125 0 237.963867188 c 2
 0 125.981445312 l 2
 0 56.4111328125 56.412109375 0 125.979492188 0 c 0
 195.549804688 0 251.958984375 56.4111328125 251.958984375 125.981445312 c 0
 251.958984375 195.96875 251.958984375 195.96875 251.958984375 195.96875 c 1
 125.979492188 195.96875 l 2
EndSplineSet
EndChar

StartChar: O
Encoding: 79 79 41
Width: 267
Flags: HW
LayerCount: 2
Fore
SplineSet
223.96484375 126 m 2
 223.96484375 71.8740234375 180.104492188 28.0166015625 125.978515625 28.0166015625 c 0
 71.85546875 28.0166015625 27.9951171875 71.8740234375 27.9951171875 126 c 2
 27.9951171875 237.982421875 l 2
 27.9951171875 292.108398438 71.85546875 335.965820312 125.978515625 335.965820312 c 0
 180.104492188 335.965820312 223.96484375 292.108398438 223.96484375 237.982421875 c 2
 223.96484375 126 l 2
251.959960938 126 m 2
 251.959960938 237.982421875 l 2
 251.959960938 307.549804688 195.548828125 363.961914062 125.978515625 363.961914062 c 0
 56.4111328125 363.961914062 0 307.549804688 0 237.982421875 c 2
 0 126 l 2
 0 56.4326171875 56.4111328125 0.0205078125 125.978515625 0.0205078125 c 0
 195.548828125 0.0205078125 251.959960938 56.4326171875 251.959960938 126 c 2
EndSplineSet
EndChar

StartChar: Q
Encoding: 81 81 42
Width: 267
Flags: HW
LayerCount: 2
Fore
SplineSet
137.633789062 189.72265625 m 2
 127.453125 204.990234375 104.173828125 189.446289062 114.323242188 174.221679688 c 2
 226.305664062 6.248046875 l 2
 236.486328125 -9.0234375 259.767578125 6.521484375 249.616210938 21.748046875 c 2
 137.633789062 189.72265625 l 2
223.96484375 125.979492188 m 2
 223.96484375 71.853515625 180.104492188 27.99609375 125.978515625 27.99609375 c 0
 71.8525390625 27.99609375 27.9951171875 71.853515625 27.9951171875 125.979492188 c 2
 27.9951171875 237.961914062 l 2
 27.9951171875 292.087890625 71.8525390625 335.9453125 125.978515625 335.9453125 c 0
 180.104492188 335.9453125 223.96484375 292.087890625 223.96484375 237.961914062 c 2
 223.96484375 125.979492188 l 2
251.95703125 125.979492188 m 2
 251.95703125 237.961914062 l 2
 251.95703125 307.529296875 195.548828125 363.94140625 125.978515625 363.94140625 c 0
 56.41015625 363.94140625 0 307.529296875 0 237.961914062 c 2
 0 125.979492188 l 2
 0 56.412109375 56.41015625 0 125.978515625 0 c 0
 195.548828125 0 251.95703125 56.412109375 251.95703125 125.979492188 c 2
EndSplineSet
EndChar

StartChar: L
Encoding: 76 76 43
Width: 267
Flags: HW
LayerCount: 2
Fore
SplineSet
237.961914062 0 m 2
 256.287109375 0 256.287109375 27.99609375 237.961914062 27.99609375 c 2
 27.99609375 27.99609375 l 1
 27.99609375 349.944335938 l 2
 27.99609375 368.26953125 0 368.26953125 0 349.944335938 c 2
 0 0 l 1
 237.961914062 0 l 2
EndSplineSet
EndChar

StartChar: M
Encoding: 77 77 44
Width: 379
Flags: HW
LayerCount: 2
Fore
SplineSet
335.473632812 14 m 2
 335.473632812 -4.3232421875 363.469726562 -4.3232421875 363.469726562 14 c 2
 363.469726562 349.947265625 l 2
 363.469726562 368.272460938 335.473632812 368.272460938 335.473632812 349.947265625 c 2
 335.473632812 14 l 2
27.9931640625 349.947265625 m 2
 27.9931640625 368.272460938 0 368.272460938 0 349.947265625 c 2
 0 14 l 2
 0 -4.3232421875 27.9931640625 -4.3232421875 27.9931640625 14 c 2
 27.9931640625 349.947265625 l 2
362.004882812 343.70703125 m 2
 370.168945312 360.061523438 345.146484375 372.618164062 336.94140625 356.1875 c 2
 169.204101562 20.240234375 l 2
 164.58984375 11.001953125 171.3359375 0.0029296875 181.733398438 0.0029296875 c 0
 187.219726562 0.0029296875 191.970703125 3.162109375 194.265625 7.76171875 c 2
 362.004882812 343.70703125 l 2
169.204101562 7.76171875 m 2
 177.397460938 -8.6513671875 202.44140625 3.865234375 194.265625 20.240234375 c 2
 26.5283203125 356.1875 l 2
 18.3349609375 372.598632812 -6.7109375 360.081054688 1.46484375 343.70703125 c 2
 169.204101562 7.76171875 l 2
EndSplineSet
EndChar

StartChar: N
Encoding: 78 78 45
Width: 267
Flags: HW
LayerCount: 2
Fore
SplineSet
0 14 m 6
 0 -4.3232421875 27.9951171875 -4.3232421875 27.9951171875 14 c 6
 27.9951171875 349.947265625 l 6
 27.9951171875 368.272460938 0 368.272460938 0 349.947265625 c 6
 0 14 l 6
25.654296875 357.696289062 m 6
 18.0029296875 369.172851562 0 363.682617188 0 349.947265625 c 4
 0 347.081054688 0.8642578125 344.415039062 2.34375 342.196289062 c 6
 226.305664062 6.2509765625 l 6
 236.486328125 -9.0205078125 259.767578125 6.5244140625 249.616210938 21.7509765625 c 6
 25.654296875 357.696289062 l 6
251.959960938 349.947265625 m 6
 251.959960938 368.272460938 223.96484375 368.272460938 223.96484375 349.947265625 c 6
 223.96484375 14 l 6
 223.96484375 -4.3232421875 251.959960938 -4.3232421875 251.959960938 14 c 6
 251.959960938 349.947265625 l 6
EndSplineSet
EndChar

StartChar: R
Encoding: 82 82 46
Width: 267
Flags: HW
LayerCount: 2
Fore
SplineSet
0 14 m 2
 0 -4.3251953125 27.9951171875 -4.3251953125 27.9951171875 14 c 2
 27.9951171875 111.983398438 l 1
 125.978515625 111.983398438 l 2
 195.548828125 111.983398438 251.959960938 168.39453125 251.959960938 237.96484375 c 0
 251.959960938 307.533203125 195.548828125 363.943359375 125.978515625 363.943359375 c 0
 0 363.943359375 0 363.943359375 0 363.943359375 c 1
 0 14 l 2
27.9951171875 335.948242188 m 1
 125.978515625 335.948242188 l 2
 180.104492188 335.948242188 223.96484375 292.087890625 223.96484375 237.96484375 c 0
 223.96484375 183.838867188 180.104492188 139.978515625 125.978515625 139.978515625 c 2
 27.9951171875 139.978515625 l 1
 27.9951171875 335.948242188 l 1
135.875976562 135.876953125 m 2
 122.921875 148.83203125 103.1171875 129.053710938 116.083984375 116.084960938 c 2
 228.06640625 4.10546875 l 2
 241.017578125 -8.849609375 260.825195312 10.9287109375 247.858398438 23.89453125 c 2
 135.875976562 135.876953125 l 2
EndSplineSet
EndChar

StartChar: S
Encoding: 83 83 47
Width: 267
Flags: HW
LayerCount: 2
Fore
SplineSet
251.959960938 125.981445312 m 4
 251.959960938 144.303710938 223.96484375 144.303710938 223.96484375 125.981445312 c 4
 223.96484375 71.85546875 180.107421875 27.9951171875 125.981445312 27.9951171875 c 4
 71.85546875 27.9951171875 27.9951171875 71.85546875 27.9951171875 125.981445312 c 4
 27.9951171875 144.303710938 0 144.303710938 0 125.981445312 c 4
 0 56.4111328125 56.4111328125 0 125.981445312 0 c 4
 195.548828125 0 251.959960938 56.4111328125 251.959960938 125.981445312 c 4
125.981445312 111.982421875 m 4
 144.303710938 111.982421875 144.303710938 139.977539062 125.981445312 139.977539062 c 4
 71.85546875 139.977539062 27.9951171875 183.837890625 27.9951171875 237.963867188 c 4
 27.9951171875 292.086914062 71.85546875 335.947265625 125.981445312 335.947265625 c 4
 180.107421875 335.947265625 223.96484375 292.086914062 223.96484375 237.963867188 c 4
 223.96484375 219.638671875 251.959960938 219.638671875 251.959960938 237.963867188 c 4
 251.959960938 307.53125 195.548828125 363.942382812 125.981445312 363.942382812 c 4
 56.4111328125 363.942382812 0 307.53125 0 237.963867188 c 4
 0 168.393554688 56.4111328125 111.982421875 125.981445312 111.982421875 c 4
EndSplineSet
EndChar

StartChar: V
Encoding: 86 86 48
Width: 267
Flags: HW
LayerCount: 2
Fore
SplineSet
250.96484375 345.150390625 m 6
 256.755859375 362.5234375 230.1953125 371.387695312 224.399414062 354 c 4
 176.630859375 210.694335938 111.702148438 17.21484375 111.702148438 13.62890625 c 4
 111.702148438 -2.083984375 134.021484375 -5.6826171875 138.982421875 9.205078125 c 6
 250.96484375 345.150390625 l 6
112.416992188 9.205078125 m 6
 118.206054688 -8.16015625 144.780273438 0.658203125 138.982421875 18.052734375 c 6
 27 354 l 6
 21.2109375 371.365234375 -5.36328125 362.546875 0.4345703125 345.150390625 c 6
 112.416992188 9.205078125 l 6
EndSplineSet
EndChar

StartChar: W
Encoding: 87 87 49
Width: 491
Flags: HW
LayerCount: 2
Fore
SplineSet
250.96484375 346.150390625 m 2
 253.967773438 355.161132812 247.24609375 364.573242188 237.680664062 364.573242188 c 0
 231.501953125 364.573242188 226.252929688 360.559570312 224.399414062 355 c 0
 176.630859375 211.694335938 111.702148438 18.2158203125 111.702148438 14.62890625 c 0
 111.702148438 -1.083984375 134.018554688 -4.6826171875 138.982421875 10.205078125 c 2
 250.96484375 346.150390625 l 2
112.416992188 10.205078125 m 2
 118.206054688 -7.16015625 144.780273438 1.658203125 138.982421875 19.052734375 c 2
 27 355 l 2
 21.2109375 372.366210938 -5.36328125 363.547851562 0.4345703125 346.150390625 c 2
 112.416992188 10.205078125 l 2
474.9296875 346.150390625 m 2
 477.932617188 355.161132812 471.208984375 364.573242188 461.645507812 364.573242188 c 0
 455.466796875 364.573242188 450.21484375 360.559570312 448.362304688 355 c 0
 400.59375 211.694335938 335.666992188 18.2158203125 335.666992188 14.62890625 c 0
 335.666992188 -1.083984375 357.983398438 -4.6826171875 362.947265625 10.205078125 c 2
 474.9296875 346.150390625 l 2
336.379882812 10.205078125 m 2
 342.16796875 -7.16015625 368.745117188 1.658203125 362.947265625 19.052734375 c 2
 250.96484375 355 l 2
 245.17578125 372.366210938 218.598632812 363.547851562 224.399414062 346.150390625 c 2
 336.379882812 10.205078125 l 2
EndSplineSet
EndChar

StartChar: X
Encoding: 88 88 50
Width: 267
Flags: HW
LayerCount: 2
Fore
SplineSet
25.6552734375 357.6953125 m 2
 15.474609375 372.965820312 -7.806640625 357.418945312 2.3447265625 342.194335938 c 2
 226.306640625 6.2470703125 l 2
 236.487304688 -9.021484375 259.768554688 6.5234375 249.6171875 21.75 c 2
 25.6552734375 357.6953125 l 2
2.3447265625 21.75 m 2
 -3.8203125 12.501953125 2.849609375 0 14 0 c 0
 18.8583984375 0 23.1455078125 2.482421875 25.6552734375 6.2470703125 c 2
 249.6171875 342.194335938 l 2
 255.782226562 351.440429688 249.114257812 363.942382812 237.961914062 363.942382812 c 0
 233.103515625 363.942382812 228.819335938 361.459960938 226.306640625 357.6953125 c 2
 2.3447265625 21.75 l 2
EndSplineSet
EndChar

StartChar: Y
Encoding: 89 89 51
Width: 267
Flags: HW
LayerCount: 2
Fore
SplineSet
27.0556640625 356.192382812 m 2
 18.8525390625 372.598632812 -6.1865234375 360.069335938 2 343.700195312 c 2
 113.982421875 119.735351562 l 2
 122.185546875 103.329101562 147.221679688 115.858398438 139.038085938 132.227539062 c 2
 27.0556640625 356.192382812 l 2
112.512695312 14 m 2
 112.512695312 -4.3251953125 140.5078125 -4.3251953125 140.5078125 14 c 2
 140.5078125 125.982421875 l 2
 140.5078125 144.305664062 112.512695312 144.305664062 112.512695312 125.982421875 c 2
 112.512695312 14 l 2
113.982421875 132.227539062 m 2
 109.36328125 122.989257812 116.106445312 111.983398438 126.508789062 111.983398438 c 0
 131.9921875 111.983398438 136.741210938 115.142578125 139.038085938 119.735351562 c 2
 251.020507812 343.700195312 l 2
 255.639648438 352.938476562 248.89453125 363.944335938 238.491210938 363.944335938 c 0
 233.010742188 363.944335938 228.26171875 360.787109375 225.96484375 356.192382812 c 2
 113.982421875 132.227539062 l 2
EndSplineSet
EndChar

StartChar: Z
Encoding: 90 90 52
Width: 267
Flags: HW
LayerCount: 2
Fore
SplineSet
13.65234375 364.193359375 m 2
 -4.669921875 364.193359375 -4.669921875 336.197265625 13.65234375 336.197265625 c 2
 237.6171875 336.197265625 l 2
 255.942382812 336.197265625 255.942382812 364.193359375 237.6171875 364.193359375 c 2
 13.65234375 364.193359375 l 2
13.65234375 28.248046875 m 2
 -4.669921875 28.248046875 -4.669921875 0.251953125 13.65234375 0.251953125 c 2
 237.6171875 0.251953125 l 2
 255.942382812 0.251953125 255.942382812 28.248046875 237.6171875 28.248046875 c 2
 13.65234375 28.248046875 l 2
249.272460938 342.4453125 m 2
 259.412109375 357.65234375 236.155273438 373.233398438 225.961914062 357.9453125 c 2
 2 22 l 2
 -4.1650390625 12.7548828125 2.5029296875 0.251953125 13.65234375 0.251953125 c 0
 18.513671875 0.251953125 22.7978515625 2.7353515625 25.3076171875 6.5 c 2
 249.272460938 342.4453125 l 2
EndSplineSet
EndChar

StartChar: zero
Encoding: 48 48 53
Width: 266
Flags: HW
LayerCount: 2
Fore
SplineSet
27.9951171875 237.963867188 m 2
 27.9951171875 292.086914062 71.85546875 335.947265625 125.978515625 335.947265625 c 0
 180.104492188 335.947265625 223.96484375 292.086914062 223.96484375 237.963867188 c 2
 223.96484375 125.981445312 l 2
 223.96484375 71.85546875 180.104492188 27.9951171875 125.978515625 27.9951171875 c 0
 71.85546875 27.9951171875 27.9951171875 71.85546875 27.9951171875 125.981445312 c 2
 27.9951171875 237.963867188 l 2
0 237.963867188 m 2
 0 125.981445312 l 2
 0 56.4111328125 56.4111328125 0 125.978515625 0 c 0
 195.548828125 0 251.959960938 56.4111328125 251.959960938 125.981445312 c 2
 251.959960938 237.963867188 l 2
 251.959960938 307.53125 195.548828125 363.942382812 125.978515625 363.942382812 c 0
 56.4111328125 363.942382812 0 307.53125 0 237.963867188 c 2
EndSplineSet
EndChar

StartChar: one
Encoding: 49 49 54
Width: 155
Flags: HW
LayerCount: 2
Fore
SplineSet
111.982421875 14 m 2
 111.982421875 -4.3251953125 139.977539062 -4.3251953125 139.977539062 14 c 2
 139.977539062 363.944335938 l 1
 125.978515625 363.944335938 l 2
 56.4111328125 363.944335938 0 307.533203125 0 237.96484375 c 0
 0 219.639648438 27.9951171875 219.639648438 27.9951171875 237.96484375 c 0
 27.9951171875 287.337890625 64.4892578125 328.16796875 111.982421875 334.95703125 c 1
 111.982421875 14 l 2
EndSplineSet
EndChar

StartChar: two
Encoding: 50 50 55
Width: 267
Flags: HW
LayerCount: 2
Fore
SplineSet
237.961914062 0 m 2
 256.287109375 0 256.287109375 27.9951171875 237.961914062 27.9951171875 c 2
 28.9873046875 27.9951171875 l 1
 35.77734375 75.48828125 76.607421875 111.982421875 125.979492188 111.982421875 c 0
 195.546875 111.982421875 251.958984375 168.393554688 251.958984375 237.963867188 c 0
 251.958984375 307.53125 195.546875 363.942382812 125.979492188 363.942382812 c 0
 56.412109375 363.942382812 0 307.53125 0 237.963867188 c 0
 0 219.638671875 27.99609375 219.638671875 27.99609375 237.963867188 c 0
 27.99609375 292.086914062 71.853515625 335.947265625 125.979492188 335.947265625 c 0
 180.10546875 335.947265625 223.962890625 292.086914062 223.962890625 237.963867188 c 0
 223.962890625 183.837890625 180.10546875 139.977539062 125.979492188 139.977539062 c 0
 56.412109375 139.977539062 0 83.56640625 0 13.9990234375 c 2
 0 0 l 1
 237.961914062 0 l 2
EndSplineSet
EndChar

StartChar: three
Encoding: 51 51 56
Width: 267
Flags: HW
LayerCount: 2
Fore
SplineSet
13.99609375 363.942382812 m 2
 -4.326171875 363.942382812 -4.326171875 335.947265625 13.99609375 335.947265625 c 2
 237.9609375 335.947265625 l 2
 256.286132812 335.947265625 256.286132812 363.942382812 237.9609375 363.942382812 c 2
 13.99609375 363.942382812 l 2
116.083984375 247.858398438 m 2
 103.129882812 234.907226562 122.907226562 215.099609375 135.875976562 228.06640625 c 2
 247.858398438 340.048828125 l 2
 260.810546875 353.002929688 241.032226562 372.807617188 228.06640625 359.840820312 c 2
 116.083984375 247.858398438 l 2
27.9951171875 125.981445312 m 0
 27.9951171875 144.303710938 0 144.303710938 0 125.981445312 c 0
 0 56.4111328125 56.4111328125 0 125.978515625 0 c 0
 195.548828125 0 251.959960938 56.4111328125 251.959960938 125.981445312 c 0
 251.959960938 195.548828125 195.548828125 251.959960938 125.978515625 251.959960938 c 0
 107.65625 251.959960938 107.65625 223.96484375 125.978515625 223.96484375 c 0
 180.104492188 223.96484375 223.96484375 180.107421875 223.96484375 125.981445312 c 0
 223.96484375 71.85546875 180.104492188 27.9951171875 125.978515625 27.9951171875 c 0
 71.85546875 27.9951171875 27.9951171875 71.85546875 27.9951171875 125.981445312 c 0
EndSplineSet
EndChar

StartChar: four
Encoding: 52 52 57
Width: 267
Flags: HW
LayerCount: 2
Fore
SplineSet
28.0302734375 349.947265625 m 2
 28.0302734375 368.26953125 0.03515625 368.26953125 0.03515625 349.947265625 c 0
 0.03515625 111.983398438 0.03515625 111.983398438 0.03515625 111.983398438 c 1
 237.999023438 111.983398438 l 2
 256.321289062 111.983398438 256.321289062 139.978515625 237.999023438 139.978515625 c 2
 28.0302734375 139.978515625 l 1
 28.0302734375 349.947265625 l 2
224 14 m 2
 224 -4.3251953125 251.995117188 -4.3251953125 251.995117188 14 c 2
 251.995117188 349.947265625 l 2
 251.995117188 368.26953125 224 368.26953125 224 349.947265625 c 2
 224 14 l 2
EndSplineSet
EndChar

StartChar: five
Encoding: 53 53 58
Width: 266
Flags: HW
LayerCount: 2
Fore
SplineSet
237.9609375 335.965820312 m 2
 256.286132812 335.965820312 256.286132812 363.9609375 237.9609375 363.9609375 c 0
 0 363.9609375 0 363.9609375 0 363.9609375 c 1
 0 223.983398438 l 1
 125.981445312 223.983398438 l 2
 180.104492188 223.983398438 223.96484375 180.125976562 223.96484375 126 c 0
 223.96484375 71.8740234375 180.104492188 28.013671875 125.981445312 28.013671875 c 0
 71.85546875 28.013671875 27.9951171875 71.8740234375 27.9951171875 126 c 0
 27.9951171875 144.322265625 0 144.322265625 0 126 c 0
 0 56.4296875 56.4111328125 0.0185546875 125.981445312 0.0185546875 c 0
 195.548828125 0.0185546875 251.959960938 56.4296875 251.959960938 126 c 0
 251.959960938 195.567382812 195.548828125 251.978515625 125.981445312 251.978515625 c 2
 27.9951171875 251.978515625 l 1
 27.9951171875 335.965820312 l 1
 237.9609375 335.965820312 l 2
EndSplineSet
EndChar

StartChar: six
Encoding: 54 54 59
Width: 267
Flags: HW
LayerCount: 2
Fore
SplineSet
125.978515625 251.959960938 m 0
 107.65625 251.959960938 107.65625 223.96484375 125.978515625 223.96484375 c 0
 180.104492188 223.96484375 223.96484375 180.107421875 223.96484375 125.981445312 c 0
 223.96484375 71.85546875 180.104492188 27.9951171875 125.978515625 27.9951171875 c 0
 71.85546875 27.9951171875 27.9951171875 71.85546875 27.9951171875 125.981445312 c 2
 27.9951171875 237.963867188 l 2
 27.9951171875 292.086914062 71.85546875 335.947265625 125.978515625 335.947265625 c 0
 180.104492188 335.947265625 223.96484375 292.086914062 223.96484375 237.963867188 c 0
 223.96484375 219.638671875 251.959960938 219.638671875 251.959960938 237.963867188 c 0
 251.959960938 307.53125 195.548828125 363.942382812 125.978515625 363.942382812 c 0
 56.4111328125 363.942382812 0 307.53125 0 237.963867188 c 2
 0 125.981445312 l 2
 0 56.4111328125 56.4111328125 0 125.978515625 0 c 0
 195.548828125 0 251.959960938 56.4111328125 251.959960938 125.981445312 c 0
 251.959960938 195.548828125 195.548828125 251.959960938 125.978515625 251.959960938 c 0
EndSplineSet
EndChar

StartChar: nine
Encoding: 57 57 60
Width: 267
Flags: HW
LayerCount: 2
Fore
SplineSet
125.979492188 110.000976562 m 0
 144.3046875 110.000976562 144.3046875 137.99609375 125.979492188 137.99609375 c 0
 71.853515625 137.99609375 27.99609375 181.856445312 27.99609375 235.982421875 c 0
 27.99609375 290.10546875 71.853515625 333.965820312 125.979492188 333.965820312 c 0
 180.10546875 333.965820312 223.962890625 290.10546875 223.962890625 235.982421875 c 2
 223.962890625 124 l 2
 223.962890625 69.8740234375 180.10546875 26.013671875 125.979492188 26.013671875 c 0
 71.853515625 26.013671875 27.99609375 69.8740234375 27.99609375 124 c 0
 27.99609375 142.322265625 0 142.322265625 0 124 c 0
 0 54.4296875 56.412109375 -1.9814453125 125.979492188 -1.9814453125 c 0
 195.546875 -1.9814453125 251.958984375 54.4296875 251.958984375 124 c 2
 251.958984375 235.982421875 l 2
 251.958984375 305.549804688 195.546875 361.9609375 125.979492188 361.9609375 c 0
 56.412109375 361.9609375 0 305.549804688 0 235.982421875 c 0
 0 166.412109375 56.412109375 110.000976562 125.979492188 110.000976562 c 0
EndSplineSet
EndChar

StartChar: seven
Encoding: 55 55 61
Width: 267
Flags: HW
LayerCount: 2
Fore
SplineSet
0 14 m 0
 0 -4.3251953125 27.9951171875 -4.3251953125 27.9951171875 14 c 0
 27.9951171875 68.1259765625 71.85546875 111.983398438 125.981445312 111.983398438 c 0
 195.548828125 111.983398438 251.959960938 168.39453125 251.959960938 237.96484375 c 0
 251.959960938 363.944335938 251.959960938 363.944335938 251.959960938 363.944335938 c 1
 13.9990234375 363.944335938 l 2
 -4.326171875 363.944335938 -4.326171875 335.948242188 13.9990234375 335.948242188 c 2
 223.96484375 335.948242188 l 1
 223.96484375 237.96484375 l 2
 223.96484375 183.838867188 180.107421875 139.979492188 125.981445312 139.979492188 c 0
 56.4111328125 139.979492188 0 83.568359375 0 14 c 0
EndSplineSet
EndChar

StartChar: eight
Encoding: 56 56 62
Width: 267
Flags: HW
LayerCount: 2
Fore
SplineSet
251.958984375 126 m 0
 251.958984375 144.322265625 223.962890625 144.322265625 223.962890625 126 c 0
 223.962890625 71.8740234375 180.10546875 28.013671875 125.979492188 28.013671875 c 0
 71.853515625 28.013671875 27.99609375 71.8740234375 27.99609375 126 c 0
 27.99609375 180.125976562 71.853515625 223.983398438 125.979492188 223.983398438 c 0
 144.3046875 223.983398438 144.3046875 251.978515625 125.979492188 251.978515625 c 0
 56.4091796875 251.978515625 0 195.567382812 0 126 c 0
 0 56.4296875 56.4091796875 0.0185546875 125.979492188 0.0185546875 c 0
 195.546875 0.0185546875 251.958984375 56.4296875 251.958984375 126 c 0
0 237.982421875 m 0
 0 219.657226562 27.99609375 219.657226562 27.99609375 237.982421875 c 0
 27.99609375 292.10546875 71.853515625 335.965820312 125.979492188 335.965820312 c 0
 180.10546875 335.965820312 223.962890625 292.10546875 223.962890625 237.982421875 c 0
 223.962890625 183.856445312 180.10546875 139.99609375 125.979492188 139.99609375 c 0
 107.654296875 139.99609375 107.654296875 112.000976562 125.979492188 112.000976562 c 0
 195.546875 112.000976562 251.958984375 168.412109375 251.958984375 237.982421875 c 0
 251.958984375 307.549804688 195.546875 363.9609375 125.979492188 363.9609375 c 0
 56.4091796875 363.9609375 0 307.549804688 0 237.982421875 c 0
EndSplineSet
EndChar
